<svg width="280" height="51" viewBox="0 0 280 51" fill="none" xmlns="http://www.w3.org/2000/svg">
<g clip-path="url(#clip0_2_738)">
<path d="M255.649 13.6677V28.6195C255.649 31.6293 253.652 33.6358 250.656 33.6358C247.661 33.6358 245.664 31.6293 245.664 28.6195V13.6677H240.504V28.6195C240.504 34.0241 244.565 38.1666 250.656 38.1666C256.747 38.1666 260.808 34.0241 260.808 28.6195V13.6677H255.649ZM264.819 37.7783H269.978V13.6677H264.819V37.7783Z" fill="white"/>
<path fill-rule="evenodd" clip-rule="evenodd" d="M267.874 5.3491H242.03C237.912 5.3491 234.575 8.71801 234.575 12.8738V38.9593C234.575 43.115 237.912 46.4839 242.03 46.4839H267.874C271.992 46.4839 275.329 43.115 275.329 38.9593V12.8738C275.329 8.71801 271.992 5.3491 267.874 5.3491ZM242.03 0.834305C235.442 0.834305 230.102 6.22458 230.102 12.8738V38.9593C230.102 45.6085 235.442 50.9987 242.03 50.9987H267.874C274.462 50.9987 279.803 45.6085 279.803 38.9593V12.8738C279.803 6.22458 274.462 0.834305 267.874 0.834305H242.03Z" fill="white"/>
<path d="M51.3864 38.006H68.4991V45.5156H51.3864V38.006Z" fill="white"/>
<path d="M69.0943 39.5843C69.0943 37.1146 68.1301 34.746 66.4138 32.9997C64.6976 31.2533 62.3699 30.2723 59.9427 30.2723C57.5156 30.2723 55.1879 31.2533 53.4717 32.9997C51.7554 34.746 50.7912 37.1146 50.7912 39.5843H69.0943Z" fill="white"/>
<path fill-rule="evenodd" clip-rule="evenodd" d="M59.98 41.9103C65.2191 41.9103 69.4663 37.6235 69.4663 32.3356C69.4663 27.0476 65.2191 22.7608 59.98 22.7608C54.7408 22.7608 50.4936 27.0476 50.4936 32.3356C50.4936 37.6235 54.7408 41.9103 59.98 41.9103ZM59.98 49.42C69.3283 49.42 76.9066 41.771 76.9066 32.3356C76.9066 22.9001 69.3283 15.2511 59.98 15.2511C50.6317 15.2511 43.0534 22.9001 43.0534 32.3356C43.0534 41.771 50.6317 49.42 59.98 49.42ZM168.013 41.9103C173.252 41.9103 177.499 37.6235 177.499 32.3356C177.499 27.0476 173.252 22.7608 168.013 22.7608C162.773 22.7608 158.526 27.0476 158.526 32.3356C158.526 37.6235 162.773 41.9103 168.013 41.9103ZM168.013 49.42C177.361 49.42 184.939 41.771 184.939 32.3356C184.939 22.9001 177.361 15.2511 168.013 15.2511C158.665 15.2511 151.086 22.9001 151.086 32.3356C151.086 41.771 158.665 49.42 168.013 49.42Z" fill="white"/>
<path d="M0.197449 49.4163H8.06173V30.5182H28.7834V49.4163H36.71V2.48593H28.7834V23.5259H8.06173V2.48593H0.197449V49.4163ZM99.4253 15.0847C95.3064 15.0847 92.0609 16.4705 90.3132 20.1871V15.4627H83.2606V49.4163H90.7499V30.2032C90.7499 24.9117 93.8704 21.888 98.4893 21.888H102.546V15.0847H99.4253ZM106.965 10.9901H114.455V2.48593H106.965V10.9901ZM106.965 49.4163H114.455V15.4627H106.965V49.4163ZM118.795 49.4163H146.382V42.6129H128.906L146.32 21.6361V15.4627H119.606V22.266H136.458L118.795 43.2429V49.4163ZM206.346 14.7068C202.163 14.7068 198.669 16.4075 196.796 19.5572V15.4627H189.743V49.4163H197.233V29.2583C197.233 24.6597 200.104 21.699 204.41 21.699C208.655 21.699 211.526 24.6597 211.526 29.2583V49.4163H219.016V27.3685C219.016 19.9352 213.835 14.7068 206.346 14.7068Z" fill="white"/>
</g>
<defs>
<clipPath id="clip0_2_738">
<rect width="279.605" height="50.1644" fill="white" transform="translate(0.197449 0.835114)"/>
</clipPath>
</defs>
</svg>
