<svg width="280" height="280" viewBox="0 0 280 280" fill="none" xmlns="http://www.w3.org/2000/svg">
<path d="M69.0233 186.199H210.362V247.65H69.0233V186.199Z" fill="white"/>
<path d="M215.278 199.103C215.278 178.894 207.315 159.512 193.14 145.222C178.965 130.932 159.739 122.903 139.693 122.903C119.646 122.903 100.421 130.932 86.2457 145.222C72.0707 159.512 64.1072 178.894 64.1072 199.103L139.693 199.103H215.278Z" fill="white"/>
<path fill-rule="evenodd" clip-rule="evenodd" d="M140 218.153C183.272 218.153 218.351 183.075 218.351 139.803C218.351 96.5306 183.272 61.4517 140 61.4517C96.728 61.4517 61.6491 96.5306 61.6491 139.803C61.6491 183.075 96.728 218.153 140 218.153ZM140 279.605C217.211 279.605 279.803 217.013 279.803 139.803C279.803 62.5917 217.211 0 140 0C62.7892 0 0.197449 62.5917 0.197449 139.803C0.197449 217.013 62.7892 279.605 140 279.605Z" fill="white"/>
</svg>
